<svg width="166" height="166" viewBox="0 0 166 166" fill="none" xmlns="http://www.w3.org/2000/svg">
<rect width="166" height="166" fill="white"/>
<path d="M88.1021 163C74.9841 163 63.5612 159.75 53.8333 153.249C44.1055 146.601 36.5147 137.294 31.0612 125.327C25.7551 113.36 23.1021 99.2512 23.1021 83C23.1021 66.6011 25.7551 52.4183 31.0612 40.4515C36.5147 28.4848 44.1055 19.2512 53.8333 12.7507C63.5612 6.25023 74.9841 3 88.1021 3C101.22 3 99.5987 16.4441 109.327 22.9446C119.054 29.4451 127.473 34.7579 132.779 46.7247C138.232 58.6915 143.238 66.6011 143.238 83C143.238 99.2512 138.232 102.945 132.779 114.911C127.473 126.878 127.881 138.521 118.153 145.169C108.425 151.67 101.22 163 88.1021 163ZM88.1021 143.055C96.2086 143.055 103.283 140.618 109.327 135.742C115.37 130.867 120.086 123.923 123.476 114.911C126.866 105.899 128.561 95.2622 128.561 83C128.561 70.59 126.866 59.9529 123.476 51.0886C120.086 42.0766 115.37 35.133 109.327 30.2576C103.283 25.3823 96.2086 22.9446 88.1021 22.9446C80.1429 22.9446 73.068 25.3823 66.8776 30.2576C60.8345 35.133 56.1179 42.0766 52.7279 51.0886C49.3379 60.1006 47.6429 70.7378 47.6429 83C47.6429 95.2622 49.3379 105.899 52.7279 114.911C56.1179 123.923 60.8345 130.867 66.8776 135.742C73.068 140.618 80.1429 143.055 88.1021 143.055Z" fill="#D5D5D5"/>
<path d="M83 163C69.8821 163 58.4592 159.75 48.7313 153.249C39.0034 146.601 31.4127 137.294 25.9592 125.327C20.6531 113.36 18 99.2512 18 83C18 66.6011 20.6531 52.4183 25.9592 40.4515C31.4127 28.4848 39.0034 19.2512 48.7313 12.7507C58.4592 6.25023 69.8821 3 83 3C96.1179 3 107.541 6.25023 117.269 12.7507C126.997 19.2512 134.514 28.4848 139.82 40.4515C145.273 52.4183 148 66.6011 148 83C148 99.2512 145.273 113.36 139.82 125.327C134.514 137.294 126.997 146.601 117.269 153.249C107.541 159.75 96.1179 163 83 163ZM83 143.055C91.1066 143.055 98.1814 140.618 104.224 135.742C110.268 130.867 114.984 123.923 118.374 114.911C121.764 105.899 123.459 95.2622 123.459 83C123.459 70.59 121.764 59.9529 118.374 51.0886C114.984 42.0766 110.268 35.133 104.224 30.2576C98.1814 25.3823 91.1066 22.9446 83 22.9446C75.0408 22.9446 67.966 25.3823 61.7755 30.2576C55.7324 35.133 51.0159 42.0766 47.6259 51.0886C44.2358 60.1006 42.5408 70.7378 42.5408 83C42.5408 95.2622 44.2358 105.899 47.6259 114.911C51.0159 123.923 55.7324 130.867 61.7755 135.742C67.966 140.618 75.0408 143.055 83 143.055Z" fill="black"/>
</svg>
